<svg width="101" height="38" viewBox="0 0 101 38" fill="none" xmlns="http://www.w3.org/2000/svg">
<rect width="101" height="38" rx="5" fill="white"/>
<path d="M38 17.2679C39.3333 18.0378 39.3333 19.9623 38 20.7321L26 27.6603C24.6667 28.4301 23 27.4678 23 25.9282L23 12.0718C23 10.5322 24.6667 9.56995 26 10.3397L38 17.2679Z" fill="black"/>
<path d="M57.73 13.5C58.64 13.5 59.43 13.65 60.1 13.95C60.78 14.25 61.3 14.68 61.66 15.24C62.02 15.8 62.2 16.465 62.2 17.235C62.2 17.995 62.02 18.66 61.66 19.23C61.3 19.79 60.78 20.22 60.1 20.52C59.43 20.82 58.64 20.97 57.73 20.97H55.36V24H53.41V13.5H57.73ZM57.64 19.32C58.49 19.32 59.135 19.14 59.575 18.78C60.015 18.42 60.235 17.905 60.235 17.235C60.235 16.565 60.015 16.05 59.575 15.69C59.135 15.33 58.49 15.15 57.64 15.15H55.36V19.32H57.64ZM64.1138 12.87H65.9888V24H64.1138V12.87ZM71.5097 15.9C72.6897 15.9 73.5897 16.185 74.2097 16.755C74.8397 17.315 75.1547 18.165 75.1547 19.305V24H73.3847V23.025C73.1547 23.375 72.8247 23.645 72.3947 23.835C71.9747 24.015 71.4647 24.105 70.8647 24.105C70.2647 24.105 69.7397 24.005 69.2897 23.805C68.8397 23.595 68.4897 23.31 68.2397 22.95C67.9997 22.58 67.8797 22.165 67.8797 21.705C67.8797 20.985 68.1447 20.41 68.6747 19.98C69.2147 19.54 70.0597 19.32 71.2097 19.32H73.2797V19.2C73.2797 18.64 73.1097 18.21 72.7697 17.91C72.4397 17.61 71.9447 17.46 71.2847 17.46C70.8347 17.46 70.3897 17.53 69.9497 17.67C69.5197 17.81 69.1547 18.005 68.8547 18.255L68.1197 16.89C68.5397 16.57 69.0447 16.325 69.6347 16.155C70.2247 15.985 70.8497 15.9 71.5097 15.9ZM71.2547 22.74C71.7247 22.74 72.1397 22.635 72.4997 22.425C72.8697 22.205 73.1297 21.895 73.2797 21.495V20.565H71.3447C70.2647 20.565 69.7247 20.92 69.7247 21.63C69.7247 21.97 69.8597 22.24 70.1297 22.44C70.3997 22.64 70.7747 22.74 71.2547 22.74ZM84.9146 15.99L81.1646 24.645C80.8146 25.515 80.3896 26.125 79.8896 26.475C79.3896 26.835 78.7846 27.015 78.0746 27.015C77.6746 27.015 77.2796 26.95 76.8896 26.82C76.4996 26.69 76.1796 26.51 75.9296 26.28L76.6796 24.9C76.8596 25.07 77.0696 25.205 77.3096 25.305C77.5596 25.405 77.8096 25.455 78.0596 25.455C78.3896 25.455 78.6596 25.37 78.8696 25.2C79.0896 25.03 79.2896 24.745 79.4696 24.345L79.6046 24.03L76.1096 15.99H78.0596L80.5796 21.915L83.1146 15.99H84.9146Z" fill="#200505"/>
</svg>
